<?xml version="1.0" standalone="no"?><svg xmlns="http://www.w3.org/2000/svg" viewBox="0 0 1440 320"><path fill="#273036" fill-opacity="1" d="M0,256L30,224C60,192,120,128,180,133.3C240,139,300,213,360,245.3C420,277,480,267,540,261.3C600,256,660,256,720,245.3C780,235,840,213,900,218.7C960,224,1020,256,1080,272C1140,288,1200,288,1260,272C1320,256,1380,224,1410,208L1440,192L1440,0L1410,0C1380,0,1320,0,1260,0C1200,0,1140,0,1080,0C1020,0,960,0,900,0C840,0,780,0,720,0C660,0,600,0,540,0C480,0,420,0,360,0C300,0,240,0,180,0C120,0,60,0,30,0L0,0Z"></path></svg>